<?xml version="1.0" encoding="utf-8" ?><svg xmlns="http://www.w3.org/2000/svg" xmlns:xlink="http://www.w3.org/1999/xlink" width="333" height="271" viewBox="0 0 333 271"><path d="M38.6509 53.8723L89.107 53.742C98.5421 53.7342 108.189 53.5358 117.622 53.9544C138.548 54.883 154.437 65.8144 164.427 84.2353C168.663 84.2449 173.021 84.3325 177.247 84.1992C188.333 83.8495 199.397 84.0867 210.486 83.8686L210.495 177.565L210.502 206.006C210.503 209.306 210.693 217.531 210.313 220.48C225.526 220.677 241.118 220.487 256.37 220.479C256.317 219.758 256.307 218.968 256.299 218.243C256.088 199.434 256.446 180.596 256.24 161.788L271.531 161.709L271.464 235.677C264.616 235.192 253.439 235.532 246.186 235.537L195.619 235.467C195.512 221.001 195.49 206.535 195.552 192.069L195.541 99.3973C192.76 99.5856 188.703 99.4685 185.838 99.4687L168.978 99.501C170.394 117.13 165.055 134.167 151.84 146.339C135.327 161.547 114.912 160.846 94.0554 160.525C85.6998 160.397 77.1117 160.824 68.7392 160.522C69.0113 168.456 68.762 178.095 68.7584 186.2L68.779 235.574C65.5164 235.337 60.1104 235.491 56.6875 235.482C49.9841 235.322 43.2788 235.251 36.5735 235.269C32.2878 235.271 27.7131 235.426 23.4807 235.268L23.4878 190.035C23.544 175.174 23.4376 160.313 23.1685 145.454C26.0203 145.548 29.9459 145.36 32.909 145.336C39.771 145.277 46.6332 145.256 53.4955 145.271C53.7213 135.14 53.5307 124.646 53.5219 114.478C58.3704 114.601 63.9805 114.491 68.8422 114.428C68.3157 123.873 68.9803 135.583 68.7921 145.216L95.4306 145.224C113.466 145.21 127.336 147.182 141.691 134.401C156.596 121.131 158.149 96.7779 144.567 82.3234C139.336 76.6532 132.584 72.6073 125.117 70.6684C116.846 68.5413 102.191 69.4696 93.0289 69.3177C75.0137 69.0188 56.2259 69.7275 38.2202 69.2117C38.0958 74.3627 38.3134 79.3239 38.2213 84.3914C38.3184 84.3868 38.4155 84.3831 38.5127 84.3801C55.7424 83.9926 74.3065 84.2676 91.6241 84.2584L108.007 84.257C112.457 84.2598 117.159 84.0161 121.493 84.865C138.865 88.2824 144.877 110.388 132.891 122.925C124.722 131.469 112.089 130.227 101.217 129.94C95.5408 129.762 89.8612 129.719 84.1829 129.81C84.4169 125.542 84.2507 118.987 84.1909 114.677C91.0979 114.545 98.0064 114.501 104.915 114.544C108.699 114.54 113.317 114.748 117.01 114.273C122.322 113.59 125.974 107.435 122.062 102.788C120.796 101.308 119.067 100.301 117.155 99.9305C114.281 99.3999 100.931 99.5444 97.5197 99.5436L58.6036 99.5805C53.0054 99.5927 43.5288 99.9052 38.2837 99.5123C38.2659 105.49 38.2929 111.467 38.3648 117.444C38.3778 121.427 38.2613 125.854 38.4275 129.793C34.0647 129.544 27.8077 129.722 23.2832 129.7L23.23 54.1556C28.0153 53.8393 33.7899 53.9217 38.6509 53.8723Z"/><path fill="#E8E8E8" d="M38.2909 160.747L53.4381 160.677C53.6224 168.802 53.5126 177.32 53.5155 185.468C53.5544 197.121 53.5267 208.773 53.4325 220.425C48.411 220.487 43.3889 220.484 38.3674 220.419C38.2675 210.128 38.2389 199.838 38.2817 189.547C38.1881 179.947 38.1912 170.346 38.2909 160.747Z"/><path d="M273.519 32.7047C277.322 32.513 282.997 32.71 286.917 32.7211C297.311 32.7364 307.706 32.8336 318.099 33.0127C318.956 55.2901 318.04 77.5903 318.495 99.7221L282.483 99.5062C273.913 99.467 264.78 99.6044 256.292 99.2983C256.224 94.2773 256.13 89.2567 256.007 84.2368C271.736 84.5291 287.475 84.0387 303.331 84.4824C303.098 73.1853 303.064 58.792 303.351 47.4927C298.803 47.4761 292.941 47.6175 288.498 47.3218C288.623 54.5843 288.489 62.2227 288.444 69.511L240.732 69.2245C241.125 76.1106 240.822 86.7179 240.797 93.8164L240.757 137.375C240.762 160.131 241.274 182.946 240.985 205.651C239.928 205.542 238.678 205.573 237.603 205.597C233.631 205.684 229.557 205.441 225.598 205.661C225.879 202.247 225.718 196.343 225.708 192.843C225.675 185.574 225.68 178.305 225.723 171.035L225.814 104.237C225.83 92.8041 225.592 80.7796 225.987 69.4172C209.346 68.8429 192.535 69.4428 175.876 69.2342C172.412 69.1908 168.964 69.2918 165.502 69.0599C165.276 64.5943 165.516 57.7927 165.037 53.7237C196.876 54.062 228.818 53.4991 260.665 53.5683C264.867 53.5775 269.365 53.4252 273.537 53.6623C273.609 46.6766 273.603 39.6902 273.519 32.7047Z"/><path d="M302.281 114.415C302.404 114.412 302.597 114.554 302.737 114.632C302.913 119.256 302.752 124.923 302.749 129.628C298.819 129.343 292.629 129.489 288.513 129.47L288.309 129.4C287.729 128.499 288.008 116.671 288.011 114.45C292.633 114.537 297.661 114.468 302.281 114.415Z"/><path d="M84.6922 191.06L98.8172 190.895C98.9276 195.019 99.1911 201.839 98.9756 205.805L84.4795 205.924C84.4841 202.338 84.2863 194.474 84.6922 191.06Z"/><path d="M84.7639 220.489C89.4408 220.576 94.3576 220.499 99.0539 220.5C98.7514 224.919 98.9587 230.419 98.8055 235.009C98.7865 235.044 98.7759 235.084 98.7486 235.112C98.0931 235.785 86.5677 235.398 84.799 235.387C84.6061 230.646 84.7423 225.277 84.7639 220.489Z"/></svg>